<?xml version="1.0" encoding="utf-8"?>
<!-- Generator: Adobe Illustrator 18.1.1, SVG Export Plug-In . SVG Version: 6.00 Build 0)  -->
<svg version="1.1" id="Layer_1" xmlns="http://www.w3.org/2000/svg" xmlns:xlink="http://www.w3.org/1999/xlink" x="0px" y="0px"
	 viewBox="0 0 410.1 514" enable-background="new 0 0 410.1 514" xml:space="preserve">
<g>
	<path fill="#252426" d="M319.7,427.5c-7.5,2.7-14.1,4.9-19.8,6.6c-5.7,1.7-12.1,2.5-19.3,2.5c-12.5,0-22.4-2.9-29.8-8.7
		c-7.4-5.8-12.2-14.3-14.3-25.5h-1.4c-10.4,11.5-21.5,20.3-33.4,26.4c-11.9,6.1-26.2,9.1-43,9.1c-17.7,0-32.3-5.4-43.7-16.3
		c-11.4-10.9-17.1-25.1-17.1-42.7c0-9.1,1.3-17.3,3.8-24.4c2.6-7.2,6.4-13.7,11.5-19.4c4-4.8,9.3-9.1,15.8-12.8
		c6.6-3.8,12.7-6.7,18.5-9c7.2-2.7,21.8-7.7,43.7-15.1c22-7.3,36.8-13.1,44.5-17.3v-23.7c0-2.1-0.4-6.1-1.3-12
		c-0.9-5.9-2.8-11.5-5.6-16.8c-3.2-5.9-7.7-11.1-13.5-15.5c-5.8-4.4-14.1-6.6-24.8-6.6c-7.3,0-14.2,1.2-20.5,3.7
		c-6.3,2.5-10.7,5.1-13.3,7.8c0,3.2,0.8,7.9,2.3,14.1c1.5,6.2,2.3,12,2.3,17.3c0,5.6-2.5,10.7-7.5,15.3c-5,4.6-12,6.9-21,6.9
		c-8,0-13.9-2.8-17.6-8.5c-3.8-5.7-5.6-12-5.6-19.1c0-7.3,2.6-14.4,7.8-21.1c5.2-6.7,11.9-12.7,20.2-18c7.2-4.5,15.9-8.3,26.1-11.4
		c10.2-3.1,20.2-4.7,30-4.7c13.4,0,25.1,0.9,35.1,2.8c10,1.8,19.1,5.8,27.2,11.9c8.1,5.9,14.3,13.9,18.6,24.1
		c4.2,10.1,6.4,23.2,6.4,39.2c0,22.8-0.2,43.1-0.7,60.7c-0.5,17.7-0.7,36.9-0.7,57.9c0,6.2,1.1,11.2,3.2,14.9
		c2.2,3.7,5.5,6.8,9.9,9.3c2.4,1.4,6.2,2.2,11.4,2.4c5.2,0.2,10.5,0.2,15.9,0.2V427.5z M236.1,301c-13.6,4-25.5,7.9-35.7,11.8
		c-10.2,3.8-19.7,8.6-28.5,14.4c-8,5.4-14.3,11.9-18.9,19.3c-4.6,7.4-6.9,16.3-6.9,26.5c0,13.3,3.5,23.1,10.4,29.3
		c6.9,6.2,15.8,9.4,26.5,9.4c11.3,0,21.3-2.8,30-8.3c8.6-5.5,15.9-12,21.8-19.6L236.1,301z M245,158.2l-9.1,7.7
		c-16.5-13.1-31.2-24.6-44.1-34.4S169.2,114.2,163,109c-6.1-5.1-10.3-9.3-12.8-12.5c-2.5-3.2-3.7-8.1-3.7-14.6
		c0-4.6,1.8-8.9,5.5-12.8c3.7-3.9,8.4-5.9,14.1-5.9c6.2,0,11.6,1.4,16.1,4.3c4.5,2.9,9.3,8.5,14.4,16.8c5.4,8.8,11.8,18.8,19.2,30.1
		C223.1,125.7,232.8,140.3,245,158.2z"/>
</g>
</svg>
