<svg xmlns="http://www.w3.org/2000/svg" viewBox="0 0 410.1 514"><path fill="#252426" d="M319.7 427.5c-7.5 2.7-14.1 4.9-19.8 6.6-5.7 1.7-12.1 2.5-19.3 2.5-12.5 0-22.4-2.9-29.8-8.7-7.4-5.8-12.2-14.3-14.3-25.5h-1.4c-10.4 11.5-21.5 20.3-33.4 26.4-11.9 6.1-26.2 9.1-43 9.1-17.7 0-32.3-5.4-43.7-16.3-11.4-10.9-17.1-25.1-17.1-42.7 0-9.1 1.3-17.3 3.8-24.4 2.6-7.2 6.4-13.7 11.5-19.4 4-4.8 9.3-9.1 15.8-12.8 6.6-3.8 12.7-6.7 18.5-9 7.2-2.7 21.8-7.7 43.7-15.1 22-7.3 36.8-13.1 44.5-17.3v-23.7c0-2.1-.4-6.1-1.3-12s-2.8-11.5-5.6-16.8c-3.2-5.9-7.7-11.1-13.5-15.5s-14.1-6.6-24.8-6.6c-7.3 0-14.2 1.2-20.5 3.7-6.3 2.5-10.7 5.1-13.3 7.8 0 3.2.8 7.9 2.3 14.1 1.5 6.2 2.3 12 2.3 17.3 0 5.6-2.5 10.7-7.5 15.3-5 4.6-12 6.9-21 6.9-8 0-13.9-2.8-17.6-8.5-3.8-5.7-5.6-12-5.6-19.1 0-7.3 2.6-14.4 7.8-21.1 5.2-6.7 11.9-12.7 20.2-18 7.2-4.5 15.9-8.3 26.1-11.4 10.2-3.1 20.2-4.7 30-4.7 13.4 0 25.1.9 35.1 2.8 10 1.8 19.1 5.8 27.2 11.9 8.1 5.9 14.3 13.9 18.6 24.1 4.2 10.1 6.4 23.2 6.4 39.2 0 22.8-.2 43.1-.7 60.7-.5 17.7-.7 36.9-.7 57.9 0 6.2 1.1 11.2 3.2 14.9 2.2 3.7 5.5 6.8 9.9 9.3 2.4 1.4 6.2 2.2 11.4 2.4 5.2.2 10.5.2 15.9.2v15.5zM236.1 301c-13.6 4-25.5 7.9-35.7 11.8-10.2 3.8-19.7 8.6-28.5 14.4-8 5.4-14.3 11.9-18.9 19.3-4.6 7.4-6.9 16.3-6.9 26.5 0 13.3 3.5 23.1 10.4 29.3 6.9 6.2 15.8 9.4 26.5 9.4 11.3 0 21.3-2.8 30-8.3 8.6-5.5 15.9-12 21.8-19.6l1.3-82.8zm8.9-142.8l-9.1 7.7c-16.5-13.1-31.2-24.6-44.1-34.4S169.2 114.2 163 109c-6.1-5.1-10.3-9.3-12.8-12.5-2.5-3.2-3.7-8.1-3.7-14.6 0-4.6 1.8-8.9 5.5-12.8 3.7-3.9 8.4-5.9 14.1-5.9 6.2 0 11.6 1.4 16.1 4.3 4.5 2.9 9.3 8.5 14.4 16.8 5.4 8.8 11.8 18.8 19.2 30.1 7.3 11.3 17 25.9 29.2 43.8z"/></svg>